<svg height="85" viewBox="0 0 122 85" width="122" xmlns="http://www.w3.org/2000/svg"><path d="m72.4938703 37.1811536c-.5894293 1.0071446-1.3444833 1.8437932-2.2347163 2.4697573-.3422099.2654867-.6649346.4798246-.9779167.6868556-.0146139.0109604-.0292279.020703-.0438418.0328813-.5297557.4250224-.7672323.9986198-.6673703 1.6184948.0304457.3823983.092555.7489648.1546643 1.1045709.0243565.142486.0487131.2813185.0694162.4189332.4079727 3.9165381-1.9095559 7.556629-5.6422018 8.8231712-.7818463.2715759-1.6294553.4140619-2.4514898.4140619-.0876837 0-.1741496-.0012178-.2606154-.0048713-.0085249 0-.142486.0012178-.1948527.0012178-3.2930097 0-6.3412357-2.100755-7.5834213-5.2269221-1.2714135-3.1249493-.548023-6.6627426 1.8401397-9.0180239.2533084-.2520906.5139238-.4761711.7915888-.71243.18511-.1595356.3714379-.3190712.5492409-.4822603.6283998-.5224486.8536982-1.2287894.6186572-1.9741008-.0596737-.2630511-.1376147-.5175773-.2204271-.7854997l-.0706341-.2338232c-.4238045-1.9533977.1132581-3.5816351 1.5990095-4.8420882.9218966-.7818462 1.9351303-1.1776406 3.0104733-1.1776406.6527564 0 1.339612.1461395 2.0435171.4347649 1.2227004.5285378 2.0739629 1.410246 2.5172526 2.6146789.0048713.0133962.0097426.0255744.0158318.0377527.1022976.2301697.1339612.5224487.1656247.8062028-.0121783.399448-.2910611.776975-.6588455.8841439-.085248.0267922-.1668425.0389705-.2508727.0389705-.2679224 0-.5382805-.1217829-.727044-.3288138l-.3763091-.6150036c-.0158318-.0255745-.0328814-.049931-.0523667-.0730698-.0681984-.0803767-.1376147-.1899813-.2131201-.3056751-.0901193-.1412681-.18511-.2886255-.3008037-.427458-.0085248-.0097426-.0158318-.0194852-.0243566-.0292279-.5675083-.6003897-1.2446213-.9048469-2.0130714-.9048469-.2606154 0-.5382804.0365349-.8220345.1071689-.0097427.0024357-.0207031.0048714-.0304458.0085248-1.0729073.3263782-1.8547536 1.3578794-1.9022489 2.50751-.0462775 1.1082244.4688642 1.9887148 1.4930584 2.5464805.2143379.1217829.4408541.1863278.640578.2411301.092555.0267922.1863279.0523667.2813185.0876837.2667046.099862.5394983.2021596.755054.3251603.2910612.1668426.4664285.5407161.4311115.9145896-.1022976.5041812-.3921409.6503207-.6016075.7148657-.0109605.0036535-.021921.0073069-.0328814.0121783-.227734.0840302-.4761712.1156937-.7404401.1485751-.1729317.0280101-.3239425.0474953-.4761711.0681984-.3129821.0414062-.6344889.0852481-.954778.1644069-2.9666314.7331331-4.9529106 3.3867825-4.8311277 6.4544938.1656248 2.9727207 2.35041 5.4095965 5.313388 5.9369165.3385565.0596736.6832021.0889015 1.0266299.0889015 2.4941138 0 4.8286921-1.552732 5.8102622-3.8653893.5650727-1.3907607.6685882-2.6828773.3202891-3.96038-.0913372-.320289-.2216449-.5809044-.3373387-.8110741-.0085248-.0170496-.0182674-.0340992-.02801-.049931-.2642689-.4238045-.7818463-.7099943-1.2872453-.7099943-.0791589 0-.1583178.007307-.2338232.0207031-.6089145.049931-1.160591.3044573-1.6866932.7769749-.0085248.007307-.8817082.8804904-.8817082.8804904-.042624.035317-.085248.0718519-.1290898.1096046-.1156938.0974263-.2240806.1899813-.3202891.2374767-.0207031.0109604-.0389705.0207031-.0572379.0328813-.1266543.0828124-.2776651.1254364-.434765.1254364-.1936348 0-.3799627-.0657627-.5224487-.1875456-.0133961-.0097427-.0255744-.0207031-.0389705-.0304458-.1997239-.142486-.3957944-.3580417-.3373386-.8731834.0535845-.277665.1863278-.5516765.3909231-.8159454.7173013-.9681741 1.5551677-1.6331087 2.5708371-2.0447349.7769749-.3178534 1.5417715-.520013 2.3394495-.619875l1.1898189-.1083868c.0109605-.0012178.021921-.0024356.0340993-.0036535 1.3761467-.2033774 2.5647479-.9036291 3.4403669-2.0289031.0913372-.1217829.1717139-.235041.2508728-.3470813.1205651-.1717139.235041-.334903.3543882-.4737355.1522287-.1826743.299586-.3324673.4408542-.4493789.1802386-.1108224.3495169-.1644069.5139238-.1644069.135179 0 .2752294.0340992.4286758.1035155.299586.1656247.4481611.3884874.470082.7002517.0255744.3458634-.0462775.6661524-.220427.9852236zm-11.3952261-15.3653487c-10.4842901 0-18.9823009 8.4992287-18.9823009 18.9823009 0 10.48429 8.4980108 18.9835187 18.9823009 18.9835187 10.4830721 0 18.981083-8.4992287 18.981083-18.9835187 0-10.4830722-8.4980109-18.9823009-18.981083-18.9823009zm59.0525288 14.8977024h-12.820086c-.467646 0-.847609.3799627-.847609.8488268v1.6793862l7.272875.0974264c.58334.0085248 1.057076.4883494 1.057076 1.0716895v1.3420476c0 .5833401-.473736 1.0631647-1.057076 1.0716895l-7.272875.0974263v1.6781684c0 .4688642.379963.8500447.847609.8500447h8.574734c2.802225 0 5.094179-2.2931721 5.094179-5.0953966v-2.792482c0-.4688641-.378745-.8488268-.848827-.8488268zm-6.403345 5.4863197-26.3562554.3531704c-.2106844.0024357-.4311114-.0815945-.5894292-.2374766-.1595356-.1571-.2460015-.3653487-.2460015-.5882114v-1.2908988c0-.2228627.0864659-.4323293.2460015-.5882114.1546643-.1534465.3604774-.2374767.5796866-.2374767h.0097426l26.3562554.3543883c.242348.0024356.439636.2033774.439636.4457254v1.3420476c0 .2435658-.197288.4432897-.439636.4469432zm-112.11455691-2.0142892c.14613948-.2922789.36291305-.5443695.65762767-.7635788 2.63538199-1.9643582 10.38929934-.4761711 14.74060244.5748153-4.6715921-.5346269-13.11114722-1.2567995-15.39823011.1887635zm15.75870751.7002517h-15.89510436c.04384184-.0791589.10595112-.1558821.1887635-.227734 1.82309003-1.5770886 10.96289676-.7489649 15.64666716-.2033775.7112122.0852481.6028254.4311115.0596737.4311115zm-14.44588783-2.898433c3.0470082-1.9667939 9.90947473.0584557 13.95753833 1.5429893-4.4499472-1.0692539-12.11009171-2.4916782-14.86238529-.4420719-.08646586.0657627-.16927823.1339612-.24600146.2058131.25452626-.5394983.63936023-.9766989 1.15084842-1.3067305zm14.44588783 3.3721685c.5431517 0 .6515385.3470813-.0596737.4311115-4.6837704.5455874-13.82357713 1.3737111-15.64666716-.2033775-.08281238-.0718519-.14492166-.1485751-.1887635-.227734zm-15.10107984 1.4650483c-.29471462-.2192092-.51148819-.4737355-.65762767-.7647966 2.28708289 1.4443452 10.72663801.7246082 15.39823011.1875457-4.3513031 1.0509864-12.10522045 2.5403913-14.74060244.5772509zm.65519201 1.4333848c-.51148819-.3300317-.89632216-.7672323-1.15084842-1.3079484.07672323.0718519.1595356.1412682.24600146.2070309 2.75229358 2.0508241 10.41243809.6259641 14.86238529-.4432897-4.0480636 1.4845335-10.91053013 3.511001-13.95753833 1.5442072zm16.24462123-4.665503v.377527c-3.155395-1.310384-12.56434194-4.8530486-16.47113743-2.3321426-1.11187789.7173013-1.68669319 1.8705854-1.71592108 3.4233174h-.00365349c0 .0207031.00243566.0414062.00243566.0608914 0 .0207031-.00243566.0414062-.00243566.0621093h.00365349c.02922789 1.5539498.60404319 2.7060161 1.71592108 3.4233174 3.90679549 2.5196882 13.31574243-1.0217586 16.47113743-2.3309248v.377527c0 .1765853.1449217.3202891.3215069.3202891h13.2499797c1.9192985 0 2.9946415-.2910612 2.9946415-1.2007794v-1.3018593c0-.9097182-1.075343-1.2019972-2.9946415-1.2019972h-13.2499797c-.1765852 0-.3215069.1437038-.3215069.3227247zm88.169603 44.6395226c-5.379151 0-9.0484696-6.2474629-6.163433-11.4305431.224081-.3641309.476172-.7002517.756272-1.0363725.11204-.1400504.280101-.2801007.420151-.3641309.421369-.2240806.812292-.2520906 1.233661 0 .390923.2520906.586994.7562718.448161 1.2044329-.057238.2240805-.169278.4481611-.280101.6442315-.141268.2520906-.337338.5041812-.477389.7842819-1.792644 3.1943655.113259 7.1717951 3.754567 7.7319964 3.922628.5882115 6.779654-3.1371275 5.827312-6.4703255-.25209-.8415199-.700252-1.5417716-1.288463-2.1860031-.476171-.5602014-1.036372-1.0363725-1.653812-1.4565235-.448161-.3081107-.896322-.5882114-1.343265-.9243322-.561419-.392141-1.121621-.812292-1.653812-1.2604531-.588211-.5041812-1.064383-1.0923926-1.400503-1.8206543-1.204433-2.5781441.700251-5.5192011 3.558496-5.4071609 1.568564.0840302 2.688966.8963222 3.333198 2.3248356.138833.2801007.196071.5882114.16806.8963222-.085248.448161-.30811.7842819-.756271.9523423-.449379.1692782-.84152.0560201-1.176423-.2801007-.141268-.1400503-.281319-.3641309-.421369-.5321913-.11204-.1680604-.224081-.3361208-.334903-.4761711-.421369-.4481611-1.09361-.5321913-1.597792-.2240806-.588211.3081108-.840302.9803524-.588211 1.5685638.11204.3081107.280101.5894292.476171.812292.308111.3361208.645449.6454493 1.036373.92555.448161.334903.952342.6442316 1.400503.9803524.589429.4189331 1.14963.8122919 1.681822 1.260453.616221.4761711 1.120402 1.0643826 1.596574 1.652594 2.716976 3.4732483 1.736624 8.4322481-1.792645 10.8423317-1.289681.840302-2.716976 1.2884631-4.762929 1.2884631zm-15.7173013-15.5760331h3.5852886.9255501l.5602013.0840302c.5309735.1388325.8963222.5882114.8963222 1.0923926.0267922.5321913-.3653487 1.0363725-.9523423 1.1204027-.3081107.0560201-.6162215.0840302-.9243322.0840302-.6174393 0-1.2336608 0-1.8498823.0280101-.7842819.02801-1.0363725.2801007-1.0923926 1.0363725v1.0363725 6.8356742c0 .392141 0 .7842819-.0267923 1.1496306-.0292279.2240806-.085248.4761712-.1692782.6710238-.1680604.4761712-.6162215.7562718-1.0643825.7282618-.4761712-.0280101-.8963222-.3641309-1.0363725-.8403021-.0280101-.1680604-.0840302-.3641308-.0840302-.5589835-.0292279-.3933587-.0292279-.7574896-.0292279-1.1496306v-6.3875132-.9243322c.0292279-1.3444832-.1960705-1.652594-1.5685638-1.6245839h-1.1484128-.6990338c-.1692783-.0280101-.3093286-.0280101-.477389-.0840302-.5602014-.1120403-.9523423-.5602013-.9523423-1.1204027.0280101-.5602013.420151-1.0095802 1.0083624-1.1204027l.5602014-.0560201h.8122919zm-22.9122351 6.9464967v-4.7617115c0-.3361208.0292279-.7002516.0560201-1.0363725.0840302-.6442315.477389-1.0363724 1.1216206-1.1484127.3081107-.0560202.6162214-.0560202.9243322-.0840302h2.5489161 5.0150199c.3641309 0 .7562718 0 1.1484128.0560201.2252983 0 .448161.0560201.6722416.1400504.4481611.1680604.7002517.6442315.6734594 1.1204026-.0292279.4761712-.2813185.7842819-.7014695.9523423-.1960705.0840302-.3921409.1400504-.5602013.1400504-.3641309.02801-.7002517.02801-1.0643826.02801-1.8486644 0-3.6985467 0-5.5752212.0280101-.3361208 0-.6722416 0-1.0363725.0280101-.420151.02801-.7282618.3081107-.7842819.7282617-.0560201.6162215-.0560201 1.232443.0280101 1.8486645.02801.3361208.3081107.6162215.6722416.6722416.3081107.0280101.6162215.0280101.9243322.057238h2.9142648c.3081108 0 .6162215 0 .9231144.02801.1972883 0 .3933588.0548023.5602014.1108225.477389.1400503.7854997.5602013.8122919 1.0363725.0292279.5041812-.3349029.9815701-.8390842 1.1216205-.2252983.0560201-.448161.1120403-.6734594.1120403-.3081107.02801-.6162215.02801-.9243322.02801h-2.8010068c-.2801006 0-.5321912 0-.8122919.0280101-.420151.0267922-.7562718.3081107-.7842819.7282617-.0280101.6162215-.0280101 1.232443 0 1.8486645.0280101.3641309.3361208.6442315.6722416.7002517.3641309.02801.7002517.0560201 1.0363725.0560201h5.9381343c.3933588 0 .7562718.0280101 1.1496306.0840302.4481611.085248.7562718.3641309.92555.7842819.1108225.3653487.0548023.7002517-.1972883.9803524-.1960704.2520906-.448161.4213688-.7842819.4761711-.2801006.0560201-.5882114.0840302-.8963221.0840302h-8.2654055c-.3081108 0-.6150037-.0280101-.9231144-.0840302-.5894293-.1108224-1.0095803-.5869936-1.0643826-1.2044329-.0292279-.3361208-.0292279-.7002517-.0292279-1.0363725zm-18.1541772 0v-4.7617115c0-.3361208.0280101-.7002516.0560202-1.0363725.0840302-.6442315.4761711-1.0363724 1.1216205-1.1484127.3081107-.0560202.6162215-.0560202.9243322-.0840302h2.5476983 5.0150199c.3641309 0 .7574897 0 1.1496306.0560201.2228627 0 .4481611.0560201.6722416.1400504.4481611.1680604.7002517.6442315.6710238 1.1204026-.0267922.4761712-.2788828.7842819-.6990338.9523423-.1960705.0840302-.392141.1400504-.5614192.1400504-.3641309.02801-.6990339.02801-1.0643826.02801-1.8474466 0-3.6973289 0-5.5740034.0280101-.3361208 0-.6734594 0-1.0375903.0280101-.4189332.02801-.7270439.3081107-.7830641.7282617-.0572379.6162215-.0572379 1.232443.0267923 1.8486645.0292279.3361208.3081107.6162215.6722416.6722416.3093286.0280101.6174393.0280101.92555.057238h2.9130471c.3081107 0 .6162214 0 .9243322.02801.1960704 0 .3921409.0548023.5602013.1108225.477389.1400503.7854997.5602013.812292 1.0363725.0292279.5041812-.334903.9815701-.8390842 1.1216205-.2252984.0560201-.4481611.1120403-.6734595.1120403-.3081107.02801-.6162214.02801-.9243322.02801h-2.8022246c-.2788828 0-.5309734 0-.8122919.0280101-.4189332.0267922-.7562718.3081107-.7830641.7282617-.0292279.6162215-.0292279 1.232443 0 1.8486645.0267923.3641309.334903.6442315.6722417.7002517.362913.02801.7002516.0560201 1.0351546.0560201h5.9393521c.392141 0 .7562719.0280101 1.1496306.0840302.4481611.085248.7562718.3641309.9231144.7842819.1132581.3653487.057238.7002517-.1948526.9803524-.1960705.2520906-.4481611.4213688-.7842819.4761711-.2813185.0560201-.5894293.0840302-.89754.0840302h-8.2641877c-.3081107 0-.6162215-.0280101-.9243322-.0840302-.5882114-.1108224-1.0083625-.5869936-1.0643826-1.2044329-.0280101-.3361208-.0280101-.7002517-.0280101-1.0363725zm-11.7435252 2.4661038c.1120403-.0560202.2252984-.0840303.3081108-.1680605.2520906-.2240805.3933587-.5602013.5614192-.868312.6722416-1.2884631 1.3724933-2.6061541 2.0447349-3.8946172l1.5965738-2.9690672c.1120403-.2520906.2520906-.4761711.3933588-.7002517.1120403-.1680604.2520906-.3081107.4189332-.420151.3641308-.2520906.7854997-.3081107 1.1764228-.0840302.4213688.2520906.6162215.6162215.5894292 1.0643826-.0292279.2240805-.085248.4761711-.1680604.6722416-.1692782.3641309-.3361208.7002517-.5334091 1.0363725-1.4005033 2.6889665-2.7997889 5.3511407-4.2295201 8.0120971-.3081108.6162215-.6442316 1.232443-.9803524 1.8498823-.0840302.1108224-.1400503.2508727-.2240805.3909231-.5882115.8122919-1.5697816.8122919-2.1287652 0l-.2813185-.5041812c-.4761711-1.0083625-.9523423-2.0447349-1.4553056-3.0530974-.1400504-.2520906-.2813185-.5321913-.477389-.7842819-.1120403-.1680604-.4749533-.1680604-.6162215 0-.1400503.1680604-.2801007.3641309-.3921409.5602014-.392141.7562718-.7842819 1.5125436-1.2044329 2.2408054-.2240806.4481611-.4481611.89754-.7282618 1.3164731-.1132581.1960705-.2520906.392141-.4213688.5602014-.4189332.3653487-1.0643826.3933588-1.4833158 0-.1680604-.1680604-.3081107-.3361208-.4493789-.5321913-.2228627-.420151-.4189332-.8122919-.6150036-1.232443-1.3457011-2.8290168-2.6901843-5.6860436-4.0066575-8.5162783-.1972883-.420151-.420151-.840302-.5882114-1.260453-.0840302-.2240805-.1400504-.4481611-.1960705-.6722416-.0840302-.4493789.1680604-.9243322.6162215-1.1484128.3921409-.2240805.9243322-.1680604 1.2884631.1680604.1400503.1680604.2801007.3641309.420151.5602014.1680604.3081107.3081107.6162215.4481611.9243322 1.0083624 2.1007551 1.9887148 4.2015101 2.970285 6.303483.1680604.3641309.3081107.7282617.5869935 1.0083624.1692783.1680604.477389.1680604.6454494.0280101.0280101-.0560202.1108225-.1120403.1400504-.1680604.0840302-.1400504.1960704-.2520906.2520906-.392141l1.260453-2.3540635c.0560201-.1388325.1400503-.2801006.1960705-.448161.1400503-.3081108.1680604-.6722417.02801-1.0083625-.1120402-.3081107-.2520906-.6442315-.420151-.9523423-.2520906-.5602013-.5334091-1.1204026-.7854997-1.680604-.1108224-.2801007-.1948526-.5882114-.2520906-.8963221-.0560201-.5041813.2813185-1.0083625.7574897-1.1776407.448161-.1388325.868312-.0267922 1.1764228.3093286.2240805.2801006.3921409.5882114.5882114.8683121.1120403.1960704.2533084.3921409.3921409.5602013.1120403.1400503.4213689.1120403.5321913-.0280101.1680604-.1960704.3081108-.420151.4761712-.6442315.1692782-.2520906.3081107-.5321913.5321912-.7562718.3361209-.392141.9243323-.4761712 1.3724933-.1960705.449379.2520906.6722417.7842819.5334092 1.2884631-.0840302.2801007-.2252984.5882114-.3653487.8683121l-.8390842 1.6245839c-.1412682.2520906-.2520906.5041812-.3653487.7282617-.1948527.420151-.2240806.8403021-.0280101 1.232443.4493789.9815702.9243322 1.9619226 1.3724933 2.9422749.0560201.1120403.1412682.1960705.2252984.2520906.1120402.0840302.2240805.1120403.3349029.1400504zm-25.662093 6.1634326c-5.37915077 0-9.0484696-6.2474629-6.16221483-11.4305431.22286271-.3641309.47495332-.7002517.75627182-1.0363725.11082244-.1400504.27888284-.2801007.41893318-.3641309.42136884-.2240806.81229195-.2520906 1.23366079 0 .39092312.2520906.58699364.7562718.44816108 1.2044329-.05723796.2240805-.1680604.4481611-.28010067.6442315-.14005034.2520906-.33733864.5041812-.47738898.7842819-1.79264431 3.1943655.1132581 7.1717951 3.75456691 7.7319964 3.9226272.5882115 6.7808719-3.1371275 5.8273118-6.4703255-.2520906-.8415199-.7002517-1.5417716-1.2884631-2.1860031-.4761711-.5602014-1.0363725-1.0363725-1.6538118-1.4565235-.4481611-.3081107-.8963222-.5882114-1.3432654-.9243322-.5602014-.392141-1.1216205-.812292-1.6538118-1.2604531-.5882114-.5041812-1.0643826-1.0923926-1.4005034-1.8206543-1.2044329-2.5781441.7002517-5.5192011 3.5584964-5.4071609 1.5685638.0840302 2.6889665.8963222 3.333198 2.3248356.1400504.2801007.1960705.5882114.1680604.8963222-.085248.448161-.3081107.7842819-.7562718.9523423-.4481611.1692782-.8415198.0560201-1.1764228-.2801007-.1400504-.1400503-.2813185-.3641309-.4213689-.5321913-.1120402-.1680604-.2228627-.3361208-.3349029-.4761711-.4213689-.4481611-1.0936105-.5321913-1.5977917-.2240806-.5882114.3081108-.840302.9803524-.5882114 1.5685638.1132581.3081107.2801006.5894292.4773889.812292.306893.3361208.6442316.6454493 1.0351547.92555.4481611.334903.9523423.6442316 1.4005034.9803524.5894292.4189331 1.1496306.8122919 1.6818219 1.260453.6162214.4761711 1.1204026 1.0643826 1.5965738 1.652594 2.7169765 3.4732483 1.737842 8.4322481-1.7926443 10.8423317-1.2884631.840302-2.7169766 1.2884631-4.7629293 1.2884631zm84.6452058-82.91101729h3.586506.924333l.560201.08524803c.533409.13883251.896322.58699359.896322 1.09239263.029228.53219128-.362913 1.0363725-.952342 1.11918487-.308111.05723796-.616222.08524803-.924332.08524803-.616222 0-1.232443 0-1.848665.02801007-.7854995.02801006-1.0375901.28010067-1.0936102 1.03637249v1.03637249 6.83567428c0 .3921409 0 .7842819-.0267923 1.1484128-.0292279.2240805-.0840302.4761711-.1692782.6722416-.1680604.4761711-.6162215.7562718-1.0643826.7282617-.4749533-.02801-.8963221-.3641308-1.0351546-.840302-.0292279-.1680604-.0852481-.3641309-.0852481-.5602013-.02801-.392141-.02801-.7562719-.02801-1.1484128v-6.3875132-.92433222c.02801-1.34448324-.1948527-1.65259398-1.5685638-1.62458391h-1.1484128-.7002516c-.1692783-.02801007-.3093286-.02801007-.4761712-.08524803-.5602013-.11082244-.9535601-.56020135-.9535601-1.11918487.0292279-.56020135.4213688-1.00958025 1.0083624-1.12040269l.5602014-.05723797h.8122919zm-18.6023382 2.49411383c-.5602014 0-1.1484128-.02801007-1.7366242 0-.1960705 0-.3921409.02801007-.5602014.05602013-.3093285.05602014-.5602013.30811075-.6174393.61622149-.0267922.11204027-.0560201.22408054-.0560201.33612081v3.50125842c0 .05723796.0292279.14005034.0292279.22408054.0548023.39335877.334903.67345944.7562718.72826175.1108225.02801007.2520906.02801007.3629131.02801007 1.2056507.02801006 2.3820735.02801006 3.5865064 0 .3081108 0 .6162215-.05602014.9255501-.13883251 1.260453-.36534871 2.0435171-1.51376147 1.9607047-2.80222457-.057238-1.23244296-.9815702-2.24202322-2.2127953-2.492896-.2533085-.05602013-.5334091-.05602013-.8135098-.05602013-.5321913-.02801007-1.0643826 0-1.6245839 0zm-5.377933 4.53763092v-4.76292929c0-.33490298.0267923-.69903385.0548023-1.03637249.0840302-.58821142.4761712-1.00836243 1.0363725-1.1204027.2813185-.0548023.5334091-.0548023.812292-.0548023 1.7086141-.0292279 3.418446-.0292279 5.0990501 0 .420151 0 .8683121.02801006 1.2884631.11082244 1.9326946.42136884 3.2783957 1.54177153 3.8933994 3.41844605.6454493 1.93269465.2520906 3.66931882-1.0911748 5.18186243-.2520907.2520906-.5041813.477389-.7294796.7562719-.1960705.1972883-.2520906.4773889-.1400504.7574896.1692783.3921409.392141.7562718.5614192 1.1204027.1680604.3641309.3641309.7002517.5041812 1.0643826.1388325.3921409.0560202.7562718-.2240805 1.0643825-.420151.4481611-1.1204027.5321913-1.5697816.1120403-.3081108-.2520906-.5321913-.5321913-.7270439-.8963222-.2252984-.3921409-.4481611-.8122919-.7002517-1.2044329-.1132581-.1960704-.2252984-.3921409-.3653487-.5882114-.2240806-.2801007-.5041812-.4481611-.8963222-.5041812-.1400503 0-.3093286-.0280101-.4481611-.0280101h-2.6609564c-.1120402 0-.2520906 0-.3641308.0280101-.5894293.0560201-.86953.3361208-.9255501.9803524-.0267922.420151-.0267922.840302-.0267922 1.260453-.0292279.2520906-.0852481.4481611-.2252984.6442315-.2788828.4481611-.7002517.6442316-1.1764228.5602014-.4481611-.0840302-.8403021-.5041812-.9243323-.9523423-.02801-.2520906-.0548023-.5321913-.0548023-.812292v-3.1383453zm-13.8698546-4.62166112c-2.5209061 0-4.5668588 2.01672485-4.5668588 4.56564098 0 2.46610378 1.9899326 4.48282858 4.4548185 4.53884878 2.5209061.02801 4.6216611-1.9899326 4.6216611-4.51083871.0280101-2.63294634-2.1287651-4.59365105-4.5096208-4.59365105zm6.9477145 4.50962085c.0267922 3.58650641-2.7462044 6.94771451-6.8916944 7.00373471-4.1467078.0560201-7.0597548-3.3331981-7.0597548-6.94771458 0-3.8653893 3.1371275-7.00373467 7.0037347-7.00373467 3.8373792.02801006 6.9197044 3.13834537 6.9477145 6.94771454zm-21.253552.14126816v4.64967115c0 .3361208 0 .7002517-.0292279 1.0363725 0 .1680604-.0560201.3081108-.1108224.4481611-.1680604.4481611-.6162215.7282618-1.0923927.7282618-.4761711-.0280101-.9523423-.420151-1.0643825-.9243323-.057238-.2240805-.0840302-.448161-.0840302-.6722416 0-.6162215 0-1.2324429-.0292279-1.8766745-.0267923-.7842819-.2788829-1.0363725-1.0351547-1.0643826-.1960705-.02801-.3933588-.02801-.5894292-.02801h-4.1735001c-.3081107.02801-.6162215.02801-.9243322.0560201-.3641309.0560201-.6454494.3641309-.6722416.7282618-.0280101.3361208-.0280101.6722416-.0280101 1.0363725-.0292279.5041812-.0292279 1.0083624-.0292279 1.5125436-.0267922.2240805-.0828123.4481611-.2228627.6442315-.2813185.4481611-.7294796.6442316-1.1764228.5602014-.5041812-.1120403-.8135098-.4481611-.9523423-.9243322-.0560201-.1400504-.0560201-.3081108-.0560201-.4481611-.0292279-.3361208-.0292279-.7002517-.0292279-1.0363725v-8.71234879c0-.39214094 0-.78428188.0292279-1.17642283.0267922-.22408054.0828123-.44816108.1388325-.67345944.1692782-.44816108.5882114-.75627182 1.0656004-.75627182.4469432 0 .8951043.30811074 1.0643825.75627182.0560202.1972883.1120403.3653487.1120403.56020134.0267922.30811075.0267922.61743932.0267922.92555006.0292279.89632215.0292279 1.79264431.0292279 2.68896647v.92433222c.0548023.56020135.3081108.84030202.8670943.89632216.1412681.02801006.3081107.02801006.4493789.02801006h4.7629293c.2788828 0 .5602013-.05602013.8122919-.11204027.2228627-.05602013.420151-.22408053.4481611-.47617114.0560201-.25209061.0828124-.53219128.1120403-.81229196v-3.13712754c0-.33612081 0-.70025169.0267922-1.0363725.0292279-.22408054.1132581-.4493789.2252984-.64544938.1960705-.36291304.5309734-.56020134.9523423-.56020134.4481611 0 .8122919.22408054 1.0083624.64544938.0828124.22286271.1388325.44694325.1388325.67102378.0292279.36534871.0292279.70146952.0292279 1.03759033zm-24.7097507 7.33863765c-1.6538119.0280101-2.9142649-.4481611-3.9506374-1.3724933-.9243322-.840302-1.4285134-1.9326946-1.4845335-3.1943655-.0560202-.6990339.0840302-1.37249331.3641308-2.01672486.1120403-.25087277.2520906-.47617114.4761712-.67224161.3641308-.28010068.7842819-.36413088 1.2056507-.16806041.4189332.19607047.6430137.53219128.6430137 1.00836243.0280101.14126816 0 .30932857-.02801.4493789l-.1680605.70025165c-.1948526.9803524.1680605 1.8206544 1.0363725 2.3808558 1.289681.8122919 3.1371276.5602013 4.1186978-.6162215.1400503-.1680604.2801007-.3641309.3641309-.5882114.420151-.8683121.2240805-1.79386217-.5041813-2.40886583-.2813185-.25330843-.6162214-.4493789-.9523423-.64544938-.5602013-.2520906-1.1496305-.47617114-1.7098319-.75627181-.4189332-.16806041-.8390842-.36413088-1.260453-.58821142-.5041812-.28010067-.9243322-.67224162-1.232443-1.17642283-.6722416-1.09239263-.5882114-2.46610376.1680604-3.50247625 1.2044329-1.65259398 3.6145165-2.04473492 5.2951206-.89510433.6162215.44816108 1.0363725 1.00836243 1.260453 1.76463425.0840302.2520906.1120403.53219128.0560201.78428188-.0828123.47617115-.3349029.78428189-.7842818.92433223-.4481611.14005033-.86953 0-1.1484128-.36413088-.2252984-.22408054-.3641309-.50418121-.5334091-.75627182-.5041812-.67345945-1.4272956-.75627182-2.0167249-.14005034-.2788828.30811075-.2788828.78428189 0 1.06438256.1692783.14005034.3641309.30811075.5602014.39214095.3921409.19607047.7854997.36413087 1.1776406.53219128.4761712.22408054.9803524.42015101 1.4565235.67224162.3641309.1680604.6722417.39214094.9803524.61622148 2.1567752 1.56856377 2.2420232 4.25874804 1.1484128 5.99537224-.9523423 1.5125436-2.3528457 2.2968255-4.0894699 2.5489161-.2252983.0280101-.448161.0280101-.448161.0280101z" fill="#fff" fill-rule="evenodd"/></svg>