<svg id="Layer_1" data-name="Layer 1" xmlns="http://www.w3.org/2000/svg" viewBox="0 0 192.62 198"><defs><style>.cls-1{fill:#0099a8;}.cls-2{fill:#453635;}</style></defs><title>logo-btw-icon</title><path class="cls-1" d="M142.08,179.74c-1.19-2.41-24.92-53.56-24.92-53.56s-1.88-4.06-9.77-.33c-6.39,3-8.33-3.5-16.46-4.05A7.7,7.7,0,0,0,83,126.1S58.5,178.18,57.75,179.86c-1.24,2.78.18,6.56,3.45,6.49s74.62,0,77.53,0S143.5,182.61,142.08,179.74ZM92.57,164.82a4.24,4.24,0,1,1,4.24-4.24A4.24,4.24,0,0,1,92.57,164.82Zm12.06,11.64a3.16,3.16,0,1,1,3.16-3.16A3.16,3.16,0,0,1,104.63,176.45Zm3.16-22.66a6.64,6.64,0,1,1,6.64-6.64A6.64,6.64,0,0,1,107.79,153.79Z" transform="translate(-3.69 -1)"/><path class="cls-2" d="M195.79,194.64L104.93,6.13C104,4.43,102.94,1,100,1c-2.8,0-3.77,3.43-4.74,5.13L4.13,194.64c-1.21,2.42.24,4.36,2.67,4.36H33.43L82.76,96.72v-26H77.13v-6.8h45.6v6.68h-5.48V96.34L166.82,199h26.55C196,199,197,197.06,195.79,194.64ZM95,56.16a3.27,3.27,0,1,1,3.27-3.27A3.27,3.27,0,0,1,95,56.16Zm-1-30.4a6.64,6.64,0,1,1,6.64,6.64A6.64,6.64,0,0,1,94,25.76Zm13,20.51A4.24,4.24,0,1,1,111.27,42,4.24,4.24,0,0,1,107,46.28Z" transform="translate(-3.69 -1)"/></svg>