<?xml version="1.0" encoding="utf-8"?>
<!-- Generator: Adobe Illustrator 19.2.1, SVG Export Plug-In . SVG Version: 6.00 Build 0)  -->
<svg version="1.1" id="Layer_1" xmlns="http://www.w3.org/2000/svg" xmlns:xlink="http://www.w3.org/1999/xlink" x="0px" y="0px"
	 viewBox="0 0 192.6 198" style="enable-background:new 0 0 192.6 198;" xml:space="preserve">
<style type="text/css">
	.st0{fill:#0099A8;}
	.st1{fill:#FFFFFF;}
</style>
<title>logo-btw-icon</title>
<path class="st0" d="M138.4,178.7c-1.2-2.4-24.9-53.6-24.9-53.6s-1.9-4.1-9.8-0.3c-6.4,3-8.3-3.5-16.5-4.1c-3.3-0.4-6.5,1.3-7.9,4.3
	c0,0-24.5,52.1-25.2,53.8c-1.2,2.8,0.2,6.6,3.5,6.5s74.6,0,77.5,0S139.8,181.6,138.4,178.7z M88.9,163.8c-2.3,0-4.2-1.9-4.2-4.2
	c0-2.3,1.9-4.2,4.2-4.2c2.3,0,4.2,1.9,4.2,4.2S91.2,163.8,88.9,163.8L88.9,163.8L88.9,163.8z M100.9,175.5c-1.7,0-3.2-1.4-3.2-3.2
	s1.4-3.2,3.2-3.2c1.7,0,3.2,1.4,3.2,3.2S102.7,175.5,100.9,175.5L100.9,175.5L100.9,175.5z M104.1,152.8c-3.7,0-6.6-3-6.6-6.6
	s3-6.6,6.6-6.6c3.7,0,6.6,3,6.6,6.6l0,0l0,0C110.7,149.8,107.8,152.8,104.1,152.8L104.1,152.8L104.1,152.8z"/>
<path class="st1" d="M88.9,163.8c-2.3,0-4.2-1.9-4.2-4.2c0-2.3,1.9-4.2,4.2-4.2c2.3,0,4.2,1.9,4.2,4.2S91.2,163.8,88.9,163.8
	L88.9,163.8L88.9,163.8z"/>
<path class="st1" d="M100.9,175.5c-1.7,0-3.2-1.4-3.2-3.2s1.4-3.2,3.2-3.2c1.7,0,3.2,1.4,3.2,3.2S102.7,175.5,100.9,175.5
	L100.9,175.5L100.9,175.5z"/>
<path class="st1" d="M104.1,152.8c-3.7,0-6.6-3-6.6-6.6s3-6.6,6.6-6.6c3.7,0,6.6,3,6.6,6.6l0,0l0,0
	C110.7,149.8,107.8,152.8,104.1,152.8L104.1,152.8L104.1,152.8z"/>
<path class="st1" d="M192.1,193.6L101.2,5.1c-0.9-1.7-2-5.1-4.9-5.1s-3.8,3.4-4.7,5.1L0.4,193.6c-1.2,2.4,0.2,4.4,2.7,4.4h26.6
	L79.1,95.7v-26h-5.6v-6.8H119v6.7h-5.5v25.7L163.1,198h26.6C192.3,198,193.3,196.1,192.1,193.6z M91.3,55.2c-1.8,0-3.3-1.5-3.3-3.3
	s1.5-3.3,3.3-3.3c1.8,0,3.3,1.5,3.3,3.3c0,0,0,0,0,0l0,0C94.6,53.7,93.1,55.2,91.3,55.2z M90.3,24.8c0-3.7,3-6.6,6.6-6.6
	s6.6,3,6.6,6.6s-3,6.6-6.6,6.6l0,0C93.3,31.4,90.3,28.4,90.3,24.8L90.3,24.8z M103.3,45.3c-2.1,0-3.7-1.7-3.7-3.8
	c0-2.1,1.7-3.7,3.8-3.7c2.1,0,3.7,1.7,3.7,3.8C107.1,43.6,105.4,45.3,103.3,45.3L103.3,45.3z"/>
</svg>
