<?xml version="1.0" encoding="utf-8"?>
<!-- Generator: Adobe Illustrator 19.1.0, SVG Export Plug-In . SVG Version: 6.00 Build 0)  -->
<svg version="1.1" id="Layer_1" xmlns="http://www.w3.org/2000/svg" xmlns:xlink="http://www.w3.org/1999/xlink" x="0px" y="0px"
	 viewBox="0 0 604 258" style="enable-background:new 0 0 604 258;" xml:space="preserve">
<style type="text/css">
	.st0{fill:#FFFFFF;}
	.st1{fill:#26CAD3;}
	.st2{fill:#00BFD6;}
</style>
<g>
	<path class="st0" d="M99.4,233.8c1.8,0,3.2,1.2,3.2,3.4v15.6c0,1.8-1.4,3.2-3.2,3.2H3.9c-1.8,0-2.6-1.4-2.6-3.2V97.5
		c0-1.8,1.2-3.2,3.2-3.2h16.4c1.8,0,3.2,1.4,3.2,3.2v136.3H99.4z"/>
	<path class="st0" d="M454.9,210.5c0,27.1-22.9,45.5-47.7,45.5h-64.5c-2,0-3.4-1.4-3.4-3.4V97.5c0-1.8,1.2-3.2,3.2-3.2h59.5
		c25.9,0,44.1,22.5,44.1,43.3c0,13.4-6.3,25.1-16,32.6C445.4,178,454.9,193.4,454.9,210.5z M397.5,162.6c33.6,0,34.4-46.3,0.4-46.3
		h-36.6v46.3H397.5z M401.9,234c39.7,0,40.1-49.2-0.2-49.2h-40.3V234H401.9z"/>
	<path class="st0" d="M502.1,218.2c2-2.4,4.7-2.4,6.5-1c5.5,4.7,18.4,18.4,37.2,18.4c20.2,0,31.4-10.1,31.4-23.1
		c0-17.2-17.8-22.3-38.4-29.5c-22.5-8.1-43.5-19.8-43.5-45.5c0-20.6,14.8-44.5,51.6-44.5c24.5,0,42.5,14.6,47.7,19.4
		c1.8,1.8,2.6,4,1,6.1l-7.9,10.3c-1.6,2.4-4,3.2-6.5,1.4c-5.3-4-17.8-15.8-34.6-15.8c-18.2,0-28.3,10.7-28.3,23.1
		c0,14.8,14,19.8,34.6,27.5c22.3,7.7,48.3,19.4,48.3,47.7c0,23.5-22.7,44.7-54.4,44.7c-30.3,0-47.7-18.8-52.6-23.7
		c-1.6-1.6-3-3.2-1-5.5L502.1,218.2z"/>
	<path class="st1" d="M41,40.3c0,9.1-7.7,15.3-16,15.3H3.4c-0.7,0-1.2-0.5-1.2-1.2v-52c0-0.6,0.4-1.1,1.1-1.1h19.9
		C31.9,1.3,38,8.9,38,15.9c0,4.5-2.1,8.4-5.4,10.9C37.8,29.4,41,34.6,41,40.3z M21.8,24.3c11.3,0,11.5-15.5,0.1-15.5H9.6v15.5H21.8z
		 M23.2,48.2c13.3,0,13.4-16.5-0.1-16.5H9.7v16.5H23.2z"/>
	<path class="st0" d="M104.7,1.3c0.5,0,0.9,0.6,0.5,1.2L85,33.5v21c0,0.7-0.4,1.2-1,1.2h-5.5c-0.8,0-1.1-0.3-1.1-1.2v-21L57,2.6
		c-0.3-0.6,0-1.2,0.6-1.2h6.7c0.5,0,0.8,0.5,1.2,1l15.7,23.5L96.8,2.4c0.3-0.5,0.6-1,1.2-1H104.7z"/>
	<path class="st1" d="M200.7,1.3c0.6,0,1.1,0.4,1.1,1.1v5.5c0,0.6-0.5,1.1-1.1,1.1h-16.3v45.5c0,0.7-0.4,1.2-1.1,1.2h-5.5
		c-0.6,0-1.1-0.4-1.1-1.2V9h-16.3c-0.6,0-1.2-0.4-1.2-1.1V2.5c0-0.7,0.5-1.2,1.2-1.2H200.7z"/>
	<path class="st0" d="M271.9,1.3c0.7,0,1.2,0.5,1.2,1.1v52c0,0.7-0.4,1.2-1,1.2h-5.6c-0.6,0-1.1-0.4-1.1-1.2V32.9h-30.2v21.6
		c0,0.6-0.5,1.2-1.1,1.2h-5.4c-0.7,0-1.2-0.5-1.2-1.2v-52c0-0.6,0.4-1.1,1.1-1.1h5.4c0.7,0,1.2,0.5,1.2,1.1v22.8h30.2V2.4
		c0-0.6,0.4-1.1,1.1-1.1H271.9z"/>
	<path class="st0" d="M311.2,25.3h15.4c0.6,0,1.2,0.5,1.2,1.2v5.2c0,0.7-0.5,1.2-1.2,1.2h-15.3v15.4h26.7c0.7,0,1.2,0.4,1.2,1.2v5.2
		c0,0.7-0.5,1.2-1.2,1.2h-33.2c-0.7,0-1.2-0.5-1.2-1.2v-52c0-0.6,0.4-1.1,1.1-1.1h33.2c0.7,0,1.2,0.5,1.2,1.1v5.3
		c0,0.7-0.5,1.1-1.2,1.1h-26.7V25.3z"/>
	<path class="st0" d="M543.4,54.4c0.3,0.7,0.1,1.2-0.7,1.2h-6.2c-0.6,0-1-0.3-1.2-0.7l-4-8.5h-29.6l-4,8.5c-0.2,0.5-0.6,0.7-1.2,0.7
		h-6.2c-0.7,0-1.1-0.5-0.7-1.2l25.5-52.8c0.3-0.5,0.5-0.6,0.9-0.6h0.8c0.4,0,0.7,0.1,0.9,0.6L543.4,54.4z M516.6,15L505,39.7h23.3
		L516.6,15z"/>
	<path class="st0" d="M597.4,1.3c0.5,0,0.9,0.6,0.5,1.2l-20.3,30.9v21c0,0.7-0.4,1.2-1,1.2H571c-0.6,0-1-0.4-1-1.2v-21L549.7,2.6
		c-0.3-0.6,0-1.2,0.6-1.2h6.7c0.5,0,0.8,0.5,1.2,1l15.7,23.5l15.6-23.5c0.3-0.5,0.6-1,1.2-1H597.4z"/>
	<path class="st1" d="M458,55.2l-16.3-34.9c-0.2-0.5-1-0.5-1.3,0l-16.7,34.9c-0.3,0.5-1,0.5-1.3,0L399.1,2.4c-0.2-0.5,0.1-1,0.6-1
		h6.4c0.3,0,0.5,0.2,0.6,0.4l16,34.5c0.3,0.5,1,0.5,1.3,0l16-34.5c0.1-0.2,0.4-0.4,0.6-0.4h0.7c0.3,0,0.5,0.2,0.6,0.4l15.8,34.5
		c0.2,0.5,1,0.5,1.3,0l16.2-34.6c0.1-0.2,0.4-0.4,0.6-0.4h6.4c0.5,0,0.8,0.5,0.6,1l-23.7,52.7C459,55.7,458.2,55.7,458,55.2z"/>
	<path class="st1" d="M255.2,240.1c-1-2-20.8-44.8-20.8-44.8s-1.6-3.4-8.2-0.3c-5.3,2.5-7-2.9-13.8-3.4c-5-0.3-6.6,3.6-6.6,3.6
		s-20.5,43.5-21.1,44.9c-1,2.3,0.2,5.5,2.9,5.4c2.8-0.1,62.4,0,64.8,0C254.9,245.6,256.4,242.5,255.2,240.1z M213.9,227.6
		c-2,0-3.5-1.6-3.5-3.5c0-2,1.6-3.5,3.5-3.5c2,0,3.5,1.6,3.5,3.5C217.4,226,215.8,227.6,213.9,227.6z M223.9,237.4
		c-1.5,0-2.6-1.2-2.6-2.6c0-1.5,1.2-2.6,2.6-2.6s2.6,1.2,2.6,2.6C226.6,236.2,225.4,237.4,223.9,237.4z M226.6,218.4
		c-3.1,0-5.5-2.5-5.5-5.5c0-3.1,2.5-5.5,5.5-5.5c3.1,0,5.5,2.5,5.5,5.5C232.1,215.9,229.6,218.4,226.6,218.4z"/>
	<path class="st0" d="M300.1,252.6L224.2,95c-0.8-1.4-1.7-4.3-4.1-4.3c-2.3,0-3.2,2.9-4,4.3l-76.1,157.5c-1,2,0.2,3.6,2.2,3.6h22.3
		l41.2-85.5V149H201v-5.7h38.1v5.6h-4.6v21.5l41.4,85.8h22.2C300.3,256.2,301.1,254.6,300.1,252.6z M215.9,136.8
		c-1.5,0-2.7-1.2-2.7-2.7c0-1.5,1.2-2.7,2.7-2.7c1.5,0,2.7,1.2,2.7,2.7C218.6,135.6,217.4,136.8,215.9,136.8z M215.1,111.4
		c0-3.1,2.5-5.5,5.5-5.5c3.1,0,5.5,2.5,5.5,5.5c0,3.1-2.5,5.5-5.5,5.5C217.5,117,215.1,114.5,215.1,111.4z M225.9,128.6
		c-2,0-3.5-1.6-3.5-3.5c0-2,1.6-3.5,3.5-3.5c2,0,3.5,1.6,3.5,3.5C229.5,127,227.9,128.6,225.9,128.6z"/>
	<circle class="st0" cx="226.6" cy="212.9" r="5.5"/>
	<circle class="st0" cx="213.9" cy="224.1" r="3.5"/>
	<circle class="st0" cx="223.9" cy="234.7" r="2.6"/>
	<g>
		<circle class="st2" cx="220.6" cy="111.4" r="5.5"/>
		<circle class="st2" cx="225.9" cy="125" r="3.5"/>
		<circle class="st2" cx="215.9" cy="134.1" r="2.7"/>
	</g>
</g>
</svg>
